<svg width="40" height="40" viewBox="0 0 40 40" fill="none" xmlns="http://www.w3.org/2000/svg">
<g clip-path="url(#clip0)">
<path d="M29.1667 15C31.9233 15 34.4883 15.8033 36.6667 17.17V4.33334L19.7333 12.7167C18.8667 13.15 17.8 13.15 16.9333 12.7167L0 4.33334V19.5833C0 21.65 1.68333 23.3333 3.75 23.3333H16.2717C18.5 18.4267 23.435 15 29.1667 15Z" fill="#D5E5FF"/>
<path d="M36.6667 3.75V4.75L19.7333 13.1333C18.8667 13.5667 17.8 13.5667 16.9333 13.1333L0 4.75V3.75C0 1.68333 1.68333 0 3.75 0H32.9167C34.9833 0 36.6667 1.68333 36.6667 3.75Z" fill="#9BB4DA"/>
<path d="M29.1666 40C35.1497 40 39.9999 35.1497 39.9999 29.1666C39.9999 23.1836 35.1497 18.3333 29.1666 18.3333C23.1835 18.3333 18.3333 23.1836 18.3333 29.1666C18.3333 35.1497 23.1835 40 29.1666 40Z" fill="url(#paint0_linear)"/>
<path d="M33.7501 30.4166H29.1667C28.4767 30.4166 27.9167 29.8566 27.9167 29.1666V24.5833C27.9167 23.8933 28.4767 23.3333 29.1667 23.3333C29.8567 23.3333 30.4167 23.8933 30.4167 24.5833V27.9166H33.7501C34.4401 27.9166 35.0001 28.4766 35.0001 29.1666C35.0001 29.8566 34.4401 30.4166 33.7501 30.4166Z" fill="#FAFAFA"/>
</g>
<defs>
<linearGradient id="paint0_linear" x1="37.698" y1="20.8675" x2="3.00447" y2="59.3889" gradientUnits="userSpaceOnUse">
<stop stop-color="#FF0066"/>
<stop offset="1" stop-color="#280000"/>
</linearGradient>
<clipPath id="clip0">
<rect width="40" height="40" fill="white"/>
</clipPath>
</defs>
</svg>
