<svg width="36" height="37" viewBox="0 0 36 37" fill="none" xmlns="http://www.w3.org/2000/svg">
<ellipse cx="18" cy="18.5" rx="18" ry="18.5" fill="#FFEFCC"/>
<path fill-rule="evenodd" clip-rule="evenodd" d="M7.91699 19C9.50283 14.9758 13.417 12.125 18.0003 12.125C22.5837 12.125 26.4978 14.9758 28.0837 19C26.4978 23.0242 22.5837 25.875 18.0003 25.875C13.417 25.875 9.50283 23.0242 7.91699 19ZM26.0853 19C24.5728 15.9108 21.4745 13.9583 18.0003 13.9583C14.5262 13.9583 11.4278 15.9108 9.91533 19C11.4278 22.0892 14.5262 24.0417 18.0003 24.0417C21.4745 24.0417 24.5728 22.0892 26.0853 19ZM18.0003 16.7083C19.2653 16.7083 20.292 17.735 20.292 19C20.292 20.265 19.2653 21.2917 18.0003 21.2917C16.7353 21.2917 15.7087 20.265 15.7087 19C15.7087 17.735 16.7353 16.7083 18.0003 16.7083ZM13.8753 19C13.8753 16.7267 15.727 14.875 18.0003 14.875C20.2737 14.875 22.1253 16.7267 22.1253 19C22.1253 21.2733 20.2737 23.125 18.0003 23.125C15.727 23.125 13.8753 21.2733 13.8753 19Z" fill="url(#paint0_linear)"/>
<defs>
<linearGradient id="paint0_linear" x1="3.63185" y1="28.8257" x2="26.4097" y2="-1.72523" gradientUnits="userSpaceOnUse">
<stop stop-color="#FF6600"/>
<stop offset="1" stop-color="#FFFF00"/>
</linearGradient>
</defs>
</svg>
