<svg width="36" height="36" viewBox="0 0 36 36" fill="none" xmlns="http://www.w3.org/2000/svg">
<path d="M27.1637 1.59933V24.2842C27.1637 24.8953 26.6685 25.3913 26.0565 25.3913H1.10715C0.495209 25.3913 0 24.8953 0 24.2842V1.59933C0 0.987396 0.495209 0.492188 1.10715 0.492188H26.0565C26.6685 0.492188 27.1637 0.987396 27.1637 1.59933Z" fill="url(#paint0_linear)"/>
<path d="M17.5693 0.492188V11.4467C17.5693 11.7405 17.2438 11.916 16.998 11.7554L13.9855 9.78305C13.863 9.70258 13.7221 9.66193 13.5818 9.66193C13.4409 9.66193 13.3 9.70258 13.1775 9.78305L10.165 11.7554C9.91922 11.9163 9.59375 11.7405 9.59375 11.4467V0.492188H17.5693Z" fill="url(#paint1_linear)"/>
<path d="M36.0009 21.8903C36.0009 25.0656 31.3229 32.578 29.5805 35.2656C29.4292 35.4996 29.1833 35.6158 28.937 35.6158C28.6906 35.6158 28.4448 35.4996 28.2935 35.2656C26.5516 32.578 21.873 25.0656 21.873 21.8903C21.873 17.989 25.0357 14.8271 28.937 14.8271C32.8382 14.8271 36.0009 17.989 36.0009 21.8903Z" fill="url(#paint2_linear)"/>
<path d="M31.8981 21.4409C31.8981 23.0765 30.5718 24.4034 28.9354 24.4034C27.2995 24.4034 25.9727 23.0765 25.9727 21.4409C25.9727 19.8042 27.2995 18.4781 28.9354 18.4781C30.5718 18.4781 31.8981 19.8042 31.8981 21.4409Z" fill="#EDF0F5"/>
<defs>
<linearGradient id="paint0_linear" x1="-5.77192" y1="30.7346" x2="37.2658" y2="-12.2027" gradientUnits="userSpaceOnUse">
<stop stop-color="#FF6600"/>
<stop offset="1" stop-color="#FFFF00"/>
</linearGradient>
<linearGradient id="paint1_linear" x1="16.7219" y1="1.81669" x2="-0.97264" y2="15.6537" gradientUnits="userSpaceOnUse">
<stop stop-color="#FF0066"/>
<stop offset="1" stop-color="#280000"/>
</linearGradient>
<linearGradient id="paint2_linear" x1="11.6257" y1="40.489" x2="48.4161" y2="17.3902" gradientUnits="userSpaceOnUse">
<stop stop-color="#000066"/>
<stop offset="1" stop-color="#00CCFF"/>
</linearGradient>
</defs>
</svg>
