<svg width="37" height="37" viewBox="0 0 37 37" fill="none" xmlns="http://www.w3.org/2000/svg">
<path d="M37 19.6563V23.9922L35.5042 25.8132H27.1789L26.1602 23.9922V19.6563L28.74 17.2932C28.6316 17.1848 29.9758 17.2932 31.5801 17.4448C33.7263 17.6616 36.3279 17.9651 36.3279 17.9651L37 19.6563Z" fill="url(#paint0_linear)"/>
<path d="M32.5918 1.08398V5.41992C32.5918 6.02684 32.115 6.50391 31.5078 6.50391C30.9006 6.50391 30.4238 6.02684 30.4238 5.41992V3.70728L19.2588 14.9229C19.0637 15.1396 18.7817 15.248 18.5 15.248C18.2183 15.248 17.9363 15.1396 17.7412 14.9229L14.1641 11.3674L6.25098 19.2588C6.05592 19.4756 5.77391 19.584 5.49219 19.584C5.21046 19.584 4.92846 19.4756 4.7334 19.2588C4.2998 18.8469 4.2998 18.1531 4.7334 17.7412L13.4053 9.06934C13.8171 8.63574 14.511 8.63574 14.9229 9.06934L18.5 12.6247L28.8845 2.16797H27.1719C26.5647 2.16797 26.0879 1.6909 26.0879 1.08398C26.0879 0.476784 26.5647 0 27.1719 0H31.5078C32.115 0 32.5918 0.476784 32.5918 1.08398Z" fill="url(#paint1_linear)"/>
<path d="M10.8398 29.4121V32.6641C10.8398 32.6641 6.91576 34.7019 6.69897 34.7019C6.6123 34.7019 6.04858 34.7236 5.41992 34.7454C4.50954 34.7454 3.44701 34.7668 3.44701 34.7668L0 32.6641V29.4121C0 28.8049 0.476784 28.3281 1.08398 28.3281H9.75586C10.3631 28.3281 10.8398 28.8049 10.8398 29.4121Z" fill="url(#paint2_linear)"/>
<path d="M23.9199 28.3281V32.6641L22.2939 34.9622H15.4431L13.0801 32.6641V28.3281L14.9878 27.1789H21.947L23.9199 28.3281Z" fill="url(#paint3_linear)"/>
<path d="M37 28.3281V32.6641L35.7859 34.355H28.2629L26.1602 32.6641V28.3281L27.5911 26.9839H35.179L37 28.3281Z" fill="url(#paint4_linear)"/>
<path d="M37 32.6641V35.916C37 36.5229 36.5232 37 35.916 37H27.2441C26.6369 37 26.1602 36.5229 26.1602 35.916V32.6641H37Z" fill="#FFD400"/>
<path d="M23.9199 32.6641V35.916C23.9199 36.5229 23.4431 37 22.8359 37H14.1641C13.5569 37 13.0801 36.5229 13.0801 35.916V32.6641H23.9199Z" fill="#FFD400"/>
<path d="M10.8398 32.6641V35.916C10.8398 36.5229 10.3631 37 9.75586 37H1.08398C0.476784 37 0 36.5229 0 35.916V32.6641H10.8398Z" fill="#FFD400"/>
<path d="M26.1602 23.9922H37V28.3281H26.1602V23.9922Z" fill="#FFD400"/>
<path d="M23.9199 25.0762V28.3281H13.0801V25.0762C13.0801 24.469 13.5569 23.9922 14.1641 23.9922H22.8359C23.4431 23.9922 23.9199 24.469 23.9199 25.0762Z" fill="#FFD400"/>
<path d="M37 15.3203V19.6562H26.1602V15.3203C26.1602 14.7131 26.6369 14.2363 27.2441 14.2363H35.916C36.5232 14.2363 37 14.7131 37 15.3203Z" fill="#FFD400"/>
<defs>
<linearGradient id="paint0_linear" x1="23.8568" y1="27.651" x2="38.5024" y2="10.6983" gradientUnits="userSpaceOnUse">
<stop stop-color="#FF6600"/>
<stop offset="1" stop-color="#FFFF00"/>
</linearGradient>
<linearGradient id="paint1_linear" x1="29.5975" y1="2.29057" x2="1.23909" y2="47.6044" gradientUnits="userSpaceOnUse">
<stop stop-color="#FF0066"/>
<stop offset="1" stop-color="#280000"/>
</linearGradient>
<linearGradient id="paint2_linear" x1="-2.30332" y1="36.1486" x2="7.86444" y2="20.4943" gradientUnits="userSpaceOnUse">
<stop stop-color="#FF6600"/>
<stop offset="1" stop-color="#FFFF00"/>
</linearGradient>
<linearGradient id="paint3_linear" x1="10.7768" y1="36.6324" x2="23.8458" y2="19.9872" gradientUnits="userSpaceOnUse">
<stop stop-color="#FF6600"/>
<stop offset="1" stop-color="#FFFF00"/>
</linearGradient>
<linearGradient id="paint4_linear" x1="23.8568" y1="35.9368" x2="36.0582" y2="19.5278" gradientUnits="userSpaceOnUse">
<stop stop-color="#FF6600"/>
<stop offset="1" stop-color="#FFFF00"/>
</linearGradient>
</defs>
</svg>
