<svg width="40" height="40" viewBox="0 0 40 40" fill="none" xmlns="http://www.w3.org/2000/svg">
<g clip-path="url(#clip0)">
<path d="M39.1667 39.1667C38.0555 40.2778 36.2539 40.2778 35.1428 39.1667L25.744 29.7679L29.7679 25.744L39.1666 35.1427C40.2778 36.2539 40.2778 38.0555 39.1667 39.1667Z" fill="#636978"/>
<path d="M27.5837 23.3297L23.3298 27.5835C22.6949 28.2184 22.6949 29.248 23.3298 29.8829L25.6292 32.1823C26.2641 32.8172 27.2937 32.8172 27.9286 32.1823L32.1824 27.9284C32.8173 27.2935 32.8173 26.264 32.1824 25.6291L29.883 23.3297C29.248 22.6947 28.2186 22.6947 27.5837 23.3297Z" fill="url(#paint0_linear)"/>
<path d="M16.2591 32.5181C25.2387 32.5181 32.5181 25.2387 32.5181 16.2591C32.5181 7.27943 25.2387 0 16.2591 0C7.27943 0 0 7.27943 0 16.2591C0 25.2387 7.27943 32.5181 16.2591 32.5181Z" fill="#636978"/>
<path d="M16.259 29.2663C23.4427 29.2663 29.2662 23.4428 29.2662 16.2591C29.2662 9.07537 23.4427 3.25182 16.259 3.25182C9.07526 3.25182 3.25171 9.07537 3.25171 16.2591C3.25171 23.4428 9.07526 29.2663 16.259 29.2663Z" fill="url(#paint1_linear)"/>
<path d="M16.2591 9.83391C10.8493 9.83391 6.46375 16.2591 6.46375 16.2591C6.46375 16.2591 10.8492 22.6842 16.2591 22.6842C21.6689 22.6842 26.0544 16.2591 26.0544 16.2591C26.0544 16.2591 21.6688 9.83391 16.2591 9.83391Z" fill="#F2F6FC"/>
<path d="M16.2591 20.8709C18.8061 20.8709 20.871 18.8061 20.871 16.2591C20.871 13.712 18.8061 11.6472 16.2591 11.6472C13.712 11.6472 11.6472 13.712 11.6472 16.2591C11.6472 18.8061 13.712 20.8709 16.2591 20.8709Z" fill="#636978"/>
</g>
<defs>
<linearGradient id="paint0_linear" x1="31.6169" y1="24.0002" x2="15.9167" y2="41.4326" gradientUnits="userSpaceOnUse">
<stop stop-color="#FF0066"/>
<stop offset="1" stop-color="#280000"/>
</linearGradient>
<linearGradient id="paint1_linear" x1="-2.27603" y1="34.849" x2="42.5107" y2="-6.10822" gradientUnits="userSpaceOnUse">
<stop stop-color="#FF6600"/>
<stop offset="1" stop-color="#FFFF00"/>
</linearGradient>
<clipPath id="clip0">
<rect width="40" height="40" fill="white"/>
</clipPath>
</defs>
</svg>
