<svg width="104" height="74" viewBox="0 0 104 74" fill="none" xmlns="http://www.w3.org/2000/svg">
<path d="M92.5669 0.310061L96.9869 6.89182L89.0769 7.42885L92.5669 0.310061Z" fill="url(#paint0_linear)"/>
<path d="M3.33108 35.1394L10.9251 37.4171L5.15547 42.8548L3.33108 35.1394Z" fill="url(#paint1_linear)"/>
<path d="M93.6422 66.2726L101.473 65.0357L98.629 72.4362L93.6422 66.2726Z" fill="url(#paint2_linear)"/>
<path d="M84.7768 43.721L76.4419 25.7861C76.1551 25.2846 75.6038 24.9945 75.0279 25.042H67.8838C67.0617 25.042 66.3954 25.7083 66.3954 26.5304C66.3954 27.3524 67.0617 28.0187 67.8838 28.0187H74.0605L81.6512 44.3909H72.4977C70.885 44.3762 69.3046 44.8425 67.9582 45.7304C66.6278 46.5808 65.5689 47.7945 64.9071 49.228C63.5547 52.1984 60.58 54.094 57.3164 54.0652H48.6839C47.0711 54.0799 45.4907 53.6135 44.1444 52.7257C42.814 51.8753 41.7551 50.6616 41.0933 49.228C39.7408 46.2577 36.7662 44.3621 33.5026 44.3909H24.3488L33.3534 28.0187H38.1162C38.9383 28.0187 39.6046 27.3524 39.6046 26.5304C39.6046 25.7083 38.9383 25.042 38.1162 25.042H32.4604C31.9226 24.991 31.4028 25.2509 31.1209 25.7117L21.2977 43.721C21.1259 43.9043 21.0211 44.1403 21 44.3907V62.8465C21.1185 67.0175 24.4932 70.3594 28.6651 70.4372H77.3349C81.5069 70.3594 84.8815 67.0175 85 62.8465V44.3162C84.9718 44.1036 84.8955 43.9 84.7768 43.721Z" fill="url(#paint3_linear)"/>
<path d="M53.8125 34.125C52.6222 34.125 51.6562 33.159 51.6562 31.9688V31.2759C51.6562 28.4929 53.0477 25.8306 55.4714 23.9676C56.2332 23.384 56.6875 22.4324 56.6875 21.4261C56.6875 19.7069 55.3966 18.3125 53.8125 18.3125C52.2284 18.3125 50.9375 19.7098 50.9375 21.4261C50.9375 22.6164 49.9715 23.5824 48.7812 23.5824C47.591 23.5824 46.625 22.6193 46.625 21.4261C46.625 17.3321 49.8507 14 53.8125 14C57.7742 14 61 17.3321 61 21.4261C61 23.7635 59.9161 25.9945 58.0991 27.3889C57.3027 27.9984 55.9687 29.3151 55.9687 31.2759V31.9688C55.9687 33.159 55.0027 34.125 53.8125 34.125Z" fill="url(#paint4_linear)"/>
<path d="M53.8125 39.875C53.525 39.875 53.2375 39.8175 52.9787 39.7025C52.72 39.5875 52.49 39.4438 52.2887 39.2425C51.8862 38.84 51.6562 38.2938 51.6562 37.7188C51.6562 37.4313 51.7137 37.1725 51.8287 36.885C51.9437 36.6263 52.0875 36.3963 52.2887 36.195C52.49 35.9938 52.72 35.85 52.9787 35.735C53.4962 35.505 54.1 35.505 54.6463 35.735C54.905 35.85 55.135 35.9938 55.3363 36.195C55.7388 36.5975 55.9687 37.1438 55.9687 37.7188C55.9687 38.2938 55.7388 38.84 55.3363 39.2425C55.135 39.4438 54.905 39.5875 54.6463 39.7025C54.3875 39.8175 54.1 39.875 53.8125 39.875Z" fill="url(#paint5_linear)"/>
<defs>
<linearGradient id="paint0_linear" x1="92.8354" y1="3.8895" x2="93.2052" y2="9.44255" gradientUnits="userSpaceOnUse">
<stop stop-color="#A4ABB8"/>
<stop offset="1" stop-color="#A2A9B7" stop-opacity="0"/>
</linearGradient>
<linearGradient id="paint1_linear" x1="5.81147" y1="37.734" x2="9.62333" y2="41.789" gradientUnits="userSpaceOnUse">
<stop stop-color="#A4ABB8"/>
<stop offset="1" stop-color="#A2A9B7" stop-opacity="0"/>
</linearGradient>
<linearGradient id="paint2_linear" x1="97.0018" y1="67.5366" x2="102.194" y2="69.54" gradientUnits="userSpaceOnUse">
<stop stop-color="#A4ABB8"/>
<stop offset="1" stop-color="#A2A9B7" stop-opacity="0"/>
</linearGradient>
<linearGradient id="paint3_linear" x1="62.33" y1="27.0994" x2="59.1675" y2="109.208" gradientUnits="userSpaceOnUse">
<stop stop-color="#F6F7F7"/>
<stop offset="0.0001" stop-color="#F6F6F7"/>
<stop offset="1" stop-color="#B8C0CD"/>
</linearGradient>
<linearGradient id="paint4_linear" x1="53.8125" y1="14" x2="53.8125" y2="34.125" gradientUnits="userSpaceOnUse">
<stop stop-color="#CAD2DF"/>
<stop offset="1" stop-color="#959EAD"/>
</linearGradient>
<linearGradient id="paint5_linear" x1="53.8125" y1="35.5625" x2="53.8125" y2="39.875" gradientUnits="userSpaceOnUse">
<stop stop-color="#CAD2DF"/>
<stop offset="1" stop-color="#959EAD"/>
</linearGradient>
</defs>
</svg>
