<svg width="101" height="64" viewBox="0 0 101 64" fill="none" xmlns="http://www.w3.org/2000/svg">
<path d="M90.5669 0.310061L94.9869 6.89182L87.0769 7.42885L90.5669 0.310061Z" fill="url(#paint0_linear)"/>
<path d="M3.33108 34.1395L10.9251 36.4172L5.15547 41.8549L3.33108 34.1395Z" fill="url(#paint1_linear)"/>
<path d="M90.6422 56.2726L98.4733 55.0357L95.629 62.4362L90.6422 56.2726Z" fill="url(#paint2_linear)"/>
<path d="M56.8217 48.3334C56.8217 52.5676 53.3891 56 49.1548 56C44.9206 56 41.4883 52.5676 41.4883 48.3334C41.4883 44.0992 44.9206 40.6665 49.1548 40.6665C53.3891 40.6665 56.8217 44.0992 56.8217 48.3334Z" fill="url(#paint3_linear)"/>
<path d="M62.5868 32.8488C56.0893 31.9209 51.0717 26.3337 51.0717 19.5835C51.0717 17.6666 51.4816 15.848 52.2081 14.1974C51.2269 13.9676 50.2073 13.8335 49.1548 13.8335C41.7568 13.8335 35.7383 19.8516 35.7383 27.25V32.5936C35.7383 36.3867 34.0765 39.9671 31.1612 42.4319C30.4157 43.0682 29.9883 43.9978 29.9883 44.9791C29.9883 46.829 31.4928 48.3335 33.3423 48.3335H64.9673C66.8172 48.3335 68.3217 46.829 68.3217 44.9791C68.3217 43.9978 67.8943 43.0682 67.1295 42.4147C64.3005 40.0208 62.6598 36.5457 62.5868 32.8488Z" fill="url(#paint4_linear)"/>
<path d="M76 19.5002C76 25.2992 71.2989 30 65.5 30C59.7011 30 55 25.2992 55 19.5002C55 13.7012 59.7011 9 65.5 9C71.2989 9 76 13.7012 76 19.5002Z" fill="url(#paint5_linear)"/>
<path d="M68.731 23.9205C68.4269 23.9205 68.1228 23.8049 67.8916 23.5721L62.3481 18.0285C61.884 17.5645 61.884 16.8121 62.3481 16.3481C62.8121 15.884 63.5645 15.884 64.0285 16.3481L69.5721 21.8916C70.0361 22.3557 70.0361 23.108 69.5721 23.5721C69.3392 23.8049 69.0351 23.9205 68.731 23.9205Z" fill="#E8EBEE"/>
<path d="M63.1875 23.9205C62.8834 23.9205 62.5793 23.8049 62.3481 23.5721C61.884 23.108 61.884 22.3557 62.3481 21.8916L67.8916 16.3481C68.3557 15.884 69.108 15.884 69.5721 16.3481C70.0361 16.8121 70.0361 17.5645 69.5721 18.0285L64.0285 23.5721C63.7957 23.8049 63.4916 23.9205 63.1875 23.9205Z" fill="#E8EBEE"/>
<defs>
<linearGradient id="paint0_linear" x1="90.8354" y1="3.8895" x2="91.2052" y2="9.44255" gradientUnits="userSpaceOnUse">
<stop stop-color="#A4ABB8"/>
<stop offset="1" stop-color="#A2A9B7" stop-opacity="0"/>
</linearGradient>
<linearGradient id="paint1_linear" x1="5.81147" y1="36.7341" x2="9.62333" y2="40.7891" gradientUnits="userSpaceOnUse">
<stop stop-color="#A4ABB8"/>
<stop offset="1" stop-color="#A2A9B7" stop-opacity="0"/>
</linearGradient>
<linearGradient id="paint2_linear" x1="94.0018" y1="57.5366" x2="99.1941" y2="59.54" gradientUnits="userSpaceOnUse">
<stop stop-color="#A4ABB8"/>
<stop offset="1" stop-color="#A2A9B7" stop-opacity="0"/>
</linearGradient>
<linearGradient id="paint3_linear" x1="51.3903" y1="41.3635" x2="49.8869" y2="69.0535" gradientUnits="userSpaceOnUse">
<stop stop-color="#F6F7F7"/>
<stop offset="0.0001" stop-color="#F6F6F7"/>
<stop offset="1" stop-color="#B8C0CD"/>
</linearGradient>
<linearGradient id="paint4_linear" x1="54.7433" y1="15.4017" x2="51.6973" y2="77.7385" gradientUnits="userSpaceOnUse">
<stop stop-color="#F6F7F7"/>
<stop offset="0.0001" stop-color="#F6F6F7"/>
<stop offset="1" stop-color="#B8C0CD"/>
</linearGradient>
<linearGradient id="paint5_linear" x1="65.5" y1="9" x2="65.5" y2="30" gradientUnits="userSpaceOnUse">
<stop stop-color="#CAD2DF"/>
<stop offset="1" stop-color="#959EAD"/>
</linearGradient>
</defs>
</svg>
