<svg width="98" height="67" viewBox="0 0 98 67" fill="none" xmlns="http://www.w3.org/2000/svg">
<g clip-path="url(#clip0)">
<path d="M62.5391 67H24.5117C23.4439 67 22.5781 66.1343 22.5781 65.0664V10.2812C22.5781 5.16354 26.7417 1 31.8594 1H73.9473C74.7292 1 75.4343 1.47102 75.7337 2.19367C76.0328 2.91619 75.8675 3.74789 75.3144 4.3009L64.4727 11.2755V65.0664C64.4727 66.1343 63.6069 67 62.5391 67Z" fill="url(#paint0_linear)"/>
<path d="M56.7383 41.2188H38.0469C36.979 41.2188 36.1133 40.353 36.1133 39.2852C36.1133 38.2173 36.979 37.3516 38.0469 37.3516H56.7383C57.8061 37.3516 58.6719 38.2173 58.6719 39.2852C58.6719 40.353 57.8061 41.2188 56.7383 41.2188Z" fill="url(#paint1_linear)"/>
<path fill-rule="evenodd" clip-rule="evenodd" d="M30.3125 41.2188C31.3775 41.2188 32.2461 40.3501 32.2461 39.2852C32.2461 38.2201 31.3774 37.3516 30.3125 37.3516C29.2475 37.3516 28.3789 38.2201 28.3789 39.2852C28.3789 40.3501 29.2475 41.2188 30.3125 41.2188Z" fill="url(#paint2_linear)"/>
<path d="M56.7383 48.9531H38.0469C36.979 48.9531 36.1133 48.0874 36.1133 47.0195C36.1133 45.9517 36.979 45.0859 38.0469 45.0859H56.7383C57.8061 45.0859 58.6719 45.9517 58.6719 47.0195C58.6719 48.0874 57.8061 48.9531 56.7383 48.9531Z" fill="url(#paint3_linear)"/>
<path fill-rule="evenodd" clip-rule="evenodd" d="M30.3125 48.9531C31.3775 48.9531 32.2461 48.0844 32.2461 47.0195C32.2461 45.9545 31.3774 45.0859 30.3125 45.0859C29.2475 45.0859 28.3789 45.9545 28.3789 47.0195C28.3789 48.0846 29.2475 48.9531 30.3125 48.9531Z" fill="url(#paint4_linear)"/>
<path d="M56.7383 56.6875H38.0469C36.979 56.6875 36.1133 55.8218 36.1133 54.7539C36.1133 53.686 36.979 52.8203 38.0469 52.8203H56.7383C57.8061 52.8203 58.6719 53.686 58.6719 54.7539C58.6719 55.8218 57.8061 56.6875 56.7383 56.6875Z" fill="url(#paint5_linear)"/>
<path fill-rule="evenodd" clip-rule="evenodd" d="M30.3125 56.6875C31.3775 56.6875 32.2461 55.8189 32.2461 54.7539C32.2461 53.6889 31.3774 52.8203 30.3125 52.8203C29.2475 52.8203 28.3789 53.6889 28.3789 54.7539C28.3789 55.8189 29.2475 56.6875 30.3125 56.6875Z" fill="url(#paint6_linear)"/>
<path d="M43.5469 28.5461C38.7663 28.5461 34.877 24.6567 34.877 19.876C34.877 15.0954 38.7663 11.206 43.5469 11.206C48.3277 11.206 52.2169 15.0954 52.2169 19.876C52.2169 24.6567 48.3275 28.5461 43.5469 28.5461Z" fill="url(#paint7_linear)"/>
<path d="M81.4883 36.7068H66.4062C65.3384 36.7068 64.4727 35.841 64.4727 34.7732V10.4746C64.4727 5.2503 68.723 1 73.9473 1C79.1716 1 83.4219 5.2503 83.4219 10.4746V34.7732C83.4219 35.841 82.5561 36.7068 81.4883 36.7068Z" fill="url(#paint8_linear)"/>
<path d="M46.5308 23.4405C46.2267 23.4405 45.9226 23.3249 45.6914 23.0921L40.1479 17.5485C39.6838 17.0845 39.6838 16.3321 40.1479 15.868C40.6119 15.404 41.3643 15.404 41.8283 15.868L47.3719 21.4116C47.836 21.8757 47.836 22.628 47.3719 23.0921C47.1391 23.3249 46.8349 23.4405 46.5308 23.4405Z" fill="#E8EBEE"/>
<path d="M40.9873 23.4405C40.6832 23.4405 40.3791 23.3249 40.1479 23.0921C39.6838 22.628 39.6838 21.8757 40.1479 21.4116L45.6914 15.868C46.1555 15.404 46.9078 15.404 47.3719 15.868C47.836 16.3321 47.836 17.0845 47.3719 17.5485L41.8283 23.0921C41.5955 23.3249 41.2914 23.4405 40.9873 23.4405Z" fill="#E8EBEE"/>
<path d="M78.6422 54.2726L86.4733 53.0357L83.629 60.4362L78.6422 54.2726Z" fill="url(#paint9_linear)"/>
</g>
<path d="M92.5669 0.310061L96.9869 6.89182L89.0769 7.42885L92.5669 0.310061Z" fill="url(#paint10_linear)"/>
<path d="M3.33108 35.1394L10.9251 37.4172L5.15547 42.8549L3.33108 35.1394Z" fill="url(#paint11_linear)"/>
<defs>
<linearGradient id="paint0_linear" x1="57" y1="4" x2="49" y2="123" gradientUnits="userSpaceOnUse">
<stop stop-color="#F6F7F7"/>
<stop offset="0.0001" stop-color="#F6F6F7"/>
<stop offset="1" stop-color="#B8C0CD"/>
</linearGradient>
<linearGradient id="paint1_linear" x1="59" y1="36" x2="36" y2="45" gradientUnits="userSpaceOnUse">
<stop stop-color="#CAD2DF"/>
<stop offset="1" stop-color="#959EAD"/>
</linearGradient>
<linearGradient id="paint2_linear" x1="32.3023" y1="36" x2="27.7761" y2="36.3036" gradientUnits="userSpaceOnUse">
<stop stop-color="#CAD2DF"/>
<stop offset="1" stop-color="#959EAD"/>
</linearGradient>
<linearGradient id="paint3_linear" x1="59" y1="43.7344" x2="36" y2="52.7344" gradientUnits="userSpaceOnUse">
<stop stop-color="#CAD2DF"/>
<stop offset="1" stop-color="#959EAD"/>
</linearGradient>
<linearGradient id="paint4_linear" x1="32.3023" y1="43.7344" x2="27.7761" y2="44.038" gradientUnits="userSpaceOnUse">
<stop stop-color="#CAD2DF"/>
<stop offset="1" stop-color="#959EAD"/>
</linearGradient>
<linearGradient id="paint5_linear" x1="59" y1="51.4688" x2="36" y2="60.4688" gradientUnits="userSpaceOnUse">
<stop stop-color="#CAD2DF"/>
<stop offset="1" stop-color="#959EAD"/>
</linearGradient>
<linearGradient id="paint6_linear" x1="32.3023" y1="51.4688" x2="27.7761" y2="51.7724" gradientUnits="userSpaceOnUse">
<stop stop-color="#CAD2DF"/>
<stop offset="1" stop-color="#959EAD"/>
</linearGradient>
<linearGradient id="paint7_linear" x1="43.5469" y1="11.206" x2="43.5469" y2="28.5461" gradientUnits="userSpaceOnUse">
<stop stop-color="#CAD2DF"/>
<stop offset="1" stop-color="#959EAD"/>
</linearGradient>
<linearGradient id="paint8_linear" x1="74" y1="15" x2="73.9473" y2="36.7068" gradientUnits="userSpaceOnUse">
<stop stop-color="#A4ABB8"/>
<stop offset="1" stop-color="#A2A9B7" stop-opacity="0"/>
</linearGradient>
<linearGradient id="paint9_linear" x1="82.0018" y1="55.5366" x2="87.1941" y2="57.54" gradientUnits="userSpaceOnUse">
<stop stop-color="#A4ABB8"/>
<stop offset="1" stop-color="#A2A9B7" stop-opacity="0"/>
</linearGradient>
<linearGradient id="paint10_linear" x1="92.8354" y1="3.8895" x2="93.2052" y2="9.44255" gradientUnits="userSpaceOnUse">
<stop stop-color="#A4ABB8"/>
<stop offset="1" stop-color="#A2A9B7" stop-opacity="0"/>
</linearGradient>
<linearGradient id="paint11_linear" x1="5.81147" y1="37.7341" x2="9.62333" y2="41.7891" gradientUnits="userSpaceOnUse">
<stop stop-color="#A4ABB8"/>
<stop offset="1" stop-color="#A2A9B7" stop-opacity="0"/>
</linearGradient>
<clipPath id="clip0">
<rect width="66" height="66" fill="white" transform="translate(20 1)"/>
</clipPath>
</defs>
</svg>
