<svg width="40" height="40" viewBox="0 0 40 40" fill="none" xmlns="http://www.w3.org/2000/svg">
<path d="M40.0001 37.6469V38.874C40.0001 39.4954 39.4975 40 38.8787 40H27.4698C26.8502 40 26.3484 39.4954 26.3484 38.874V37.6469C26.3484 34.3346 29.0219 31.6493 32.3205 31.6493H34.0271C37.3258 31.6493 40.0001 34.3346 40.0001 37.6469Z" fill="url(#paint0_linear)"/>
<path d="M33.1741 31.6492C35.3906 31.6492 37.1875 29.8449 37.1875 27.6192C37.1875 25.3935 35.3906 23.5892 33.1741 23.5892C30.9575 23.5892 29.1606 25.3935 29.1606 27.6192C29.1606 29.8449 30.9575 31.6492 33.1741 31.6492Z" fill="#FFBFAB"/>
<path d="M26.8486 14.0569V15.284C26.8486 15.9062 26.3468 16.41 25.7272 16.41H14.3182C13.6986 16.41 13.1968 15.9062 13.1968 15.284V14.0569C13.1968 10.7446 15.8711 8.0593 19.1697 8.0593H20.8755C24.1742 8.05922 26.8486 10.7446 26.8486 14.0569Z" fill="url(#paint1_linear)"/>
<path d="M24.036 4.02922C24.036 6.25539 22.2388 8.05922 20.0226 8.05922C17.8063 8.05922 16.0092 6.25539 16.0092 4.02922C16.0092 1.80383 17.8064 0 20.0227 0C22.2389 0 24.036 1.80383 24.036 4.02922Z" fill="#FFBFAB"/>
<path d="M13.6517 37.6469V38.874C13.6517 39.4954 13.1499 40 12.5303 40H1.12141C0.501797 40 0 39.4954 0 38.874V37.6469C0 34.3346 2.6743 31.6493 5.97289 31.6493H7.67953C10.9782 31.6493 13.6517 34.3346 13.6517 37.6469Z" fill="url(#paint2_linear)"/>
<path d="M6.82582 31.6492C9.04238 31.6492 10.8393 29.8449 10.8393 27.6192C10.8393 25.3935 9.04238 23.5892 6.82582 23.5892C4.60926 23.5892 2.81238 25.3935 2.81238 27.6192C2.81238 29.8449 4.60926 31.6492 6.82582 31.6492Z" fill="#FFBFAB"/>
<path d="M25.482 30.763C23.7363 31.339 21.9002 31.6336 20.0226 31.6407H19.9586C18.1256 31.6407 16.3284 31.3648 14.6163 30.8211C13.9998 30.6252 13.658 29.9654 13.8531 29.3464C14.0481 28.7273 14.7053 28.3841 15.3217 28.5801C16.8053 29.051 18.366 29.29 19.9587 29.29C19.9798 29.29 20.0016 29.29 20.0227 29.2892C21.6513 29.2837 23.2417 29.0283 24.7517 28.5299C25.3658 28.3269 26.0276 28.6631 26.2289 29.2798C26.4309 29.8964 26.0962 30.5608 25.482 30.763Z" fill="#DFE7F4"/>
<path d="M5.25132 19.5713C5.18171 19.5713 5.11132 19.5651 5.04038 19.5521C4.40437 19.4358 3.98257 18.8239 4.09835 18.1852C4.43109 16.3494 5.05944 14.5686 5.96593 12.8922C6.84062 11.2746 7.93968 9.81991 9.23242 8.56858C9.69789 8.11811 10.4389 8.13178 10.8876 8.59912C11.3362 9.06655 11.3226 9.81061 10.8572 10.2612C9.73703 11.3453 8.78359 12.608 8.02335 14.014C7.23554 15.4709 6.68991 17.016 6.40171 18.6062C6.29874 19.1736 5.80609 19.5713 5.25132 19.5713Z" fill="#DFE7F4"/>
<path d="M34.7939 19.5713C34.2392 19.5713 33.7465 19.1737 33.6436 18.6062C33.3554 17.016 32.8098 15.4709 32.022 14.014C31.2617 12.608 30.3082 11.3453 29.1882 10.2612C28.7227 9.81069 28.7091 9.06655 29.1578 8.59912C29.6064 8.13178 30.3474 8.11803 30.8129 8.56858C32.1057 9.81991 33.2047 11.2746 34.0794 12.8922C34.9859 14.5687 35.6142 16.3494 35.947 18.1852C36.0628 18.8239 35.641 19.4358 35.005 19.5521C34.934 19.565 34.8635 19.5713 34.7939 19.5713Z" fill="#C7CFE1"/>
<defs>
<linearGradient id="paint0_linear" x1="38.5497" y1="32.626" x2="27.1851" y2="53.2547" gradientUnits="userSpaceOnUse">
<stop stop-color="#FF0066"/>
<stop offset="1" stop-color="#280000"/>
</linearGradient>
<linearGradient id="paint1_linear" x1="3.29474" y1="18.3676" x2="18.4009" y2="-4.44766" gradientUnits="userSpaceOnUse">
<stop stop-color="#000066"/>
<stop offset="1" stop-color="#00CCFF"/>
</linearGradient>
<linearGradient id="paint2_linear" x1="-2.90081" y1="41.7921" x2="10.44" y2="21.8474" gradientUnits="userSpaceOnUse">
<stop stop-color="#FF6600"/>
<stop offset="1" stop-color="#FFFF00"/>
</linearGradient>
</defs>
</svg>
