<svg width="104" height="74" viewBox="0 0 104 74" fill="none" xmlns="http://www.w3.org/2000/svg">
<path d="M92.5669 0.310061L96.9869 6.89182L89.0769 7.42885L92.5669 0.310061Z" fill="url(#paint0_linear)"/>
<path d="M3.33108 35.1394L10.9251 37.4171L5.15547 42.8548L3.33108 35.1394Z" fill="url(#paint1_linear)"/>
<path d="M93.6422 66.2726L101.473 65.0357L98.629 72.4362L93.6422 66.2726Z" fill="url(#paint2_linear)"/>
<g clip-path="url(#clip0)">
<path d="M85.7688 40.5563C85.6238 40.7525 82.1635 45.4163 76.5252 50.1511C73.2037 52.9399 69.817 55.1649 66.4605 56.7636C63.0515 58.3874 59.6649 59.3661 56.3609 59.6861C55.5599 59.7636 54.7652 59.8024 53.9753 59.8024C49.9252 59.8024 45.7252 58.7799 41.4913 56.7636C38.1335 55.1649 34.7469 52.9399 31.4254 50.1511C25.7869 45.4163 22.3267 40.7525 22.1818 40.5563C21.9394 40.225 21.9394 39.775 22.1818 39.4438C22.3268 39.2475 25.787 34.5838 31.4254 29.8489C34.7469 27.0601 38.1335 24.8351 41.4913 23.2364C45.725 21.2201 49.9252 20.1976 53.9753 20.1976C54.765 20.1976 55.5598 20.2364 56.3609 20.3139C59.665 20.6339 63.0515 21.6126 66.4605 23.2364C69.817 24.8351 73.2037 27.0601 76.5252 29.8489C82.1635 34.5839 85.6238 39.2475 85.7688 39.4438C86.0124 39.775 86.0124 40.225 85.7688 40.5563Z" fill="url(#paint3_linear)"/>
<path d="M67.3225 40C67.3225 47.3661 61.3343 53.3586 53.9738 53.3586C53.5526 53.3586 53.1353 53.3386 52.7241 53.2999C45.9473 52.6686 40.625 46.945 40.625 40C40.625 33.055 45.9473 27.3314 52.7241 26.7001C53.1353 26.6614 53.5526 26.6414 53.9738 26.6414C61.3343 26.6414 67.3225 32.6339 67.3225 40Z" fill="white"/>
<path d="M60.1997 37.2981C60.1521 37.1892 60.0842 37.0905 59.9999 37.007L56.8952 33.9375C56.8106 33.8539 56.7111 33.7872 56.6016 33.7409C55.7597 33.3845 54.8658 33.2039 53.945 33.2039C50.1822 33.2039 47.1211 36.2672 47.1211 40.0325C47.1211 43.7977 50.1823 46.8611 53.945 46.8611C57.7077 46.8611 60.769 43.7977 60.769 40.0325C60.7691 39.0822 60.5775 38.1622 60.1997 37.2981Z" fill="url(#paint4_linear)"/>
<path d="M58.0437 39.035C59.7742 39.035 61.1772 37.6312 61.1772 35.8995C61.1772 34.1678 59.7742 32.764 58.0437 32.764C56.3131 32.764 54.9102 34.1678 54.9102 35.8995C54.9102 37.6312 56.3131 39.035 58.0437 39.035Z" fill="white"/>
<path d="M58.6555 67.9575C58.6555 70.1862 56.846 72 54.622 72H26.0511C23.8271 72 22.0176 70.1862 22.0176 67.9575C22.0176 65.7287 23.8271 63.9162 26.0511 63.9162H26.402L28.5098 61.0037C28.686 60.76 28.9681 60.615 29.2678 60.615C29.5688 60.615 29.851 60.76 30.0271 61.0037L32.135 63.9162H54.622C56.846 63.9164 58.6555 65.7289 58.6555 67.9575Z" fill="url(#paint5_linear)"/>
<path d="M86.0011 12.0425C86.0011 14.2712 84.1916 16.0837 81.9676 16.0837H79.4701L77.3622 18.9963C77.1861 19.24 76.904 19.385 76.6042 19.385C76.3032 19.385 76.0211 19.24 75.845 18.9963L73.7383 16.0837H58.3421C56.1181 16.0837 54.3086 14.2712 54.3086 12.0425C54.3086 9.81375 56.1181 8 58.3421 8H81.9676C84.1916 8 86.0011 9.81375 86.0011 12.0425Z" fill="url(#paint6_linear)"/>
</g>
<defs>
<linearGradient id="paint0_linear" x1="92.8354" y1="3.8895" x2="93.2052" y2="9.44255" gradientUnits="userSpaceOnUse">
<stop stop-color="#A4ABB8"/>
<stop offset="1" stop-color="#A2A9B7" stop-opacity="0"/>
</linearGradient>
<linearGradient id="paint1_linear" x1="5.81147" y1="37.734" x2="9.62333" y2="41.789" gradientUnits="userSpaceOnUse">
<stop stop-color="#A4ABB8"/>
<stop offset="1" stop-color="#A2A9B7" stop-opacity="0"/>
</linearGradient>
<linearGradient id="paint2_linear" x1="97.0018" y1="67.5366" x2="102.194" y2="69.54" gradientUnits="userSpaceOnUse">
<stop stop-color="#A4ABB8"/>
<stop offset="1" stop-color="#A2A9B7" stop-opacity="0"/>
</linearGradient>
<linearGradient id="paint3_linear" x1="63.2987" y1="21.9978" x2="60.8895" y2="93.6481" gradientUnits="userSpaceOnUse">
<stop stop-color="#F6F7F7"/>
<stop offset="0.0001" stop-color="#F6F6F7"/>
<stop offset="1" stop-color="#B8C0CD"/>
</linearGradient>
<linearGradient id="paint4_linear" x1="53.945" y1="33.2039" x2="53.945" y2="46.8611" gradientUnits="userSpaceOnUse">
<stop stop-color="#CAD2DF"/>
<stop offset="1" stop-color="#959EAD"/>
</linearGradient>
<linearGradient id="paint5_linear" x1="40.3365" y1="60.615" x2="40.3365" y2="72" gradientUnits="userSpaceOnUse">
<stop stop-color="#CAD2DF"/>
<stop offset="1" stop-color="#959EAD"/>
</linearGradient>
<linearGradient id="paint6_linear" x1="70.1548" y1="8" x2="70.1548" y2="19.385" gradientUnits="userSpaceOnUse">
<stop stop-color="#CAD2DF"/>
<stop offset="1" stop-color="#959EAD"/>
</linearGradient>
<clipPath id="clip0">
<rect width="64" height="64" fill="white" transform="translate(22 8)"/>
</clipPath>
</defs>
</svg>
