<svg width="104" height="74" viewBox="0 0 104 74" fill="none" xmlns="http://www.w3.org/2000/svg">
<path d="M92.5669 0.310061L96.9869 6.89182L89.0769 7.42885L92.5669 0.310061Z" fill="url(#paint0_linear)"/>
<path d="M3.33108 35.1394L10.9251 37.4171L5.15547 42.8548L3.33108 35.1394Z" fill="url(#paint1_linear)"/>
<path d="M93.6422 66.2726L101.473 65.0357L98.629 72.4362L93.6422 66.2726Z" fill="url(#paint2_linear)"/>
<g clip-path="url(#clip0)">
<path d="M37.1176 70H23V43.5294H37.1176L38.2941 57.6471L37.1176 70Z" fill="url(#paint3_linear)"/>
<path d="M51.2348 70H37.1172V43.5294H51.2348V70Z" fill="url(#paint4_linear)"/>
<path d="M37.1176 36.4706H23V10H37.1176L38.2941 23.8478L37.1176 36.4706Z" fill="url(#paint5_linear)"/>
<path d="M51.2348 36.4706H37.1172V10H51.2348V36.4706Z" fill="url(#paint6_linear)"/>
<path d="M54.7656 10H83.0009V13.5294H54.7656V10Z" fill="url(#paint7_linear)"/>
<path d="M54.7656 17.0588H83.0009V20.5883H54.7656V17.0588Z" fill="url(#paint8_linear)"/>
<path d="M54.7656 24.1177H83.0009V27.6471H54.7656V24.1177Z" fill="url(#paint9_linear)"/>
<path d="M54.7656 31.1765H79.4715V34.7059H54.7656V31.1765Z" fill="url(#paint10_linear)"/>
<path d="M54.7656 43.5294H83.0009V47.0588H54.7656V43.5294Z" fill="url(#paint11_linear)"/>
<path d="M54.7656 50.5883H83.0009V54.1177H54.7656V50.5883Z" fill="url(#paint12_linear)"/>
<path d="M54.7656 57.6471H83.0009V61.1765H54.7656V57.6471Z" fill="url(#paint13_linear)"/>
<path d="M54.7656 64.7059H79.4715V68.2353H54.7656V64.7059Z" fill="url(#paint14_linear)"/>
<path d="M33.0717 54.6346L30.5762 57.1302L35.3534 61.9075L37.1181 60.1428L38.0592 57.6471L37.1181 55.1515L35.3534 56.9162L33.0717 54.6346Z" fill="#F9F9F9"/>
<path d="M43.6591 53.6008L41.1635 51.1052L37.1172 55.1515V60.1428L43.6591 53.6008Z" fill="#F9F9F9"/>
<path d="M33.0717 21.1052L30.5762 23.6008L35.3533 28.378L37.1181 26.6133L38.1631 23.6956L37.1181 21.622L35.3533 23.3868L33.0717 21.1052Z" fill="#F9F9F9"/>
<path d="M43.6591 20.0713L41.1635 17.5758L37.1172 21.622V26.6133L43.6591 20.0713Z" fill="#F9F9F9"/>
</g>
<defs>
<linearGradient id="paint0_linear" x1="92.8354" y1="3.8895" x2="93.2052" y2="9.44255" gradientUnits="userSpaceOnUse">
<stop stop-color="#A4ABB8"/>
<stop offset="1" stop-color="#A2A9B7" stop-opacity="0"/>
</linearGradient>
<linearGradient id="paint1_linear" x1="5.81147" y1="37.734" x2="9.62333" y2="41.789" gradientUnits="userSpaceOnUse">
<stop stop-color="#A4ABB8"/>
<stop offset="1" stop-color="#A2A9B7" stop-opacity="0"/>
</linearGradient>
<linearGradient id="paint2_linear" x1="97.0018" y1="67.5366" x2="102.194" y2="69.54" gradientUnits="userSpaceOnUse">
<stop stop-color="#A4ABB8"/>
<stop offset="1" stop-color="#A2A9B7" stop-opacity="0"/>
</linearGradient>
<linearGradient id="paint3_linear" x1="30.6471" y1="43.5294" x2="30.6471" y2="70" gradientUnits="userSpaceOnUse">
<stop stop-color="#CAD2DF"/>
<stop offset="1" stop-color="#959EAD"/>
</linearGradient>
<linearGradient id="paint4_linear" x1="44.176" y1="43.5294" x2="44.176" y2="70" gradientUnits="userSpaceOnUse">
<stop stop-color="#CAD2DF"/>
<stop offset="1" stop-color="#959EAD"/>
</linearGradient>
<linearGradient id="paint5_linear" x1="30.6471" y1="10" x2="30.6471" y2="36.4706" gradientUnits="userSpaceOnUse">
<stop stop-color="#CAD2DF"/>
<stop offset="1" stop-color="#959EAD"/>
</linearGradient>
<linearGradient id="paint6_linear" x1="44.176" y1="10" x2="44.176" y2="36.4706" gradientUnits="userSpaceOnUse">
<stop stop-color="#CAD2DF"/>
<stop offset="1" stop-color="#959EAD"/>
</linearGradient>
<linearGradient id="paint7_linear" x1="68.8833" y1="10" x2="68.8833" y2="13.5294" gradientUnits="userSpaceOnUse">
<stop stop-color="#CAD2DF"/>
<stop offset="1" stop-color="#959EAD"/>
</linearGradient>
<linearGradient id="paint8_linear" x1="72.9994" y1="17.2193" x2="72.9561" y2="23.6114" gradientUnits="userSpaceOnUse">
<stop stop-color="#F6F7F7"/>
<stop offset="0.0001" stop-color="#F6F6F7"/>
<stop offset="1" stop-color="#B8C0CD"/>
</linearGradient>
<linearGradient id="paint9_linear" x1="72.9994" y1="24.2781" x2="72.9561" y2="30.6702" gradientUnits="userSpaceOnUse">
<stop stop-color="#F6F7F7"/>
<stop offset="0.0001" stop-color="#F6F6F7"/>
<stop offset="1" stop-color="#B8C0CD"/>
</linearGradient>
<linearGradient id="paint10_linear" x1="70.7202" y1="31.3369" x2="70.6706" y2="37.729" gradientUnits="userSpaceOnUse">
<stop stop-color="#F6F7F7"/>
<stop offset="0.0001" stop-color="#F6F6F7"/>
<stop offset="1" stop-color="#B8C0CD"/>
</linearGradient>
<linearGradient id="paint11_linear" x1="68.8833" y1="43.5294" x2="68.8833" y2="47.0588" gradientUnits="userSpaceOnUse">
<stop stop-color="#CAD2DF"/>
<stop offset="1" stop-color="#959EAD"/>
</linearGradient>
<linearGradient id="paint12_linear" x1="72.9994" y1="50.7487" x2="72.9561" y2="57.1408" gradientUnits="userSpaceOnUse">
<stop stop-color="#F6F7F7"/>
<stop offset="0.0001" stop-color="#F6F6F7"/>
<stop offset="1" stop-color="#B8C0CD"/>
</linearGradient>
<linearGradient id="paint13_linear" x1="72.9994" y1="57.8075" x2="72.9561" y2="64.1996" gradientUnits="userSpaceOnUse">
<stop stop-color="#F6F7F7"/>
<stop offset="0.0001" stop-color="#F6F6F7"/>
<stop offset="1" stop-color="#B8C0CD"/>
</linearGradient>
<linearGradient id="paint14_linear" x1="70.7202" y1="64.8664" x2="70.6706" y2="71.2584" gradientUnits="userSpaceOnUse">
<stop stop-color="#F6F7F7"/>
<stop offset="0.0001" stop-color="#F6F6F7"/>
<stop offset="1" stop-color="#B8C0CD"/>
</linearGradient>
<clipPath id="clip0">
<rect width="60" height="60" fill="white" transform="translate(23 10)"/>
</clipPath>
</defs>
</svg>
