<svg width="22" height="22" viewBox="0 0 22 22" fill="none" xmlns="http://www.w3.org/2000/svg">
<path fill-rule="evenodd" clip-rule="evenodd" d="M8.25 1.37988H13.75V3.21322H8.25V1.37988ZM10.0833 13.2965V7.79655H11.9167V13.2965H10.0833ZM17.4442 7.22822L18.7458 5.92655C18.3517 5.45905 17.9208 5.01905 17.4533 4.63405L16.1517 5.93572C14.7308 4.79905 12.9433 4.12072 11 4.12072C6.44417 4.12072 2.75 7.81488 2.75 12.3707C2.75 16.9265 6.435 20.6207 11 20.6207C15.565 20.6207 19.25 16.9265 19.25 12.3707C19.25 10.4365 18.5717 8.64905 17.4442 7.22822ZM4.58333 12.3799C4.58333 15.9274 7.4525 18.7965 11 18.7965C14.5475 18.7965 17.4167 15.9274 17.4167 12.3799C17.4167 8.83238 14.5475 5.96322 11 5.96322C7.4525 5.96322 4.58333 8.83238 4.58333 12.3799Z" fill="url(#paint0_linear)"/>
<defs>
<linearGradient id="paint0_linear" x1="-9.21792" y1="25.1311" x2="27.5866" y2="-4.0273" gradientUnits="userSpaceOnUse">
<stop stop-color="#000066"/>
<stop offset="1" stop-color="#00CCFF"/>
</linearGradient>
</defs>
</svg>
