<svg width="36" height="37" viewBox="0 0 36 37" fill="none" xmlns="http://www.w3.org/2000/svg">
<ellipse cx="18" cy="18.5" rx="18" ry="18.5" fill="#C9DEEF"/>
<path fill-rule="evenodd" clip-rule="evenodd" d="M15.25 9.37988H20.75V11.2132H15.25V9.37988ZM17.0833 21.2965V15.7965H18.9167V21.2965H17.0833ZM24.4442 15.2282L25.7458 13.9265C25.3517 13.459 24.9208 13.019 24.4533 12.634L23.1517 13.9357C21.7308 12.799 19.9433 12.1207 18 12.1207C13.4442 12.1207 9.75 15.8149 9.75 20.3707C9.75 24.9265 13.435 28.6207 18 28.6207C22.565 28.6207 26.25 24.9265 26.25 20.3707C26.25 18.4365 25.5717 16.649 24.4442 15.2282ZM11.5833 20.3799C11.5833 23.9274 14.4525 26.7965 18 26.7965C21.5475 26.7965 24.4167 23.9274 24.4167 20.3799C24.4167 16.8324 21.5475 13.9632 18 13.9632C14.4525 13.9632 11.5833 16.8324 11.5833 20.3799Z" fill="url(#paint0_linear)"/>
<defs>
<linearGradient id="paint0_linear" x1="-2.21792" y1="33.1311" x2="34.5866" y2="3.9727" gradientUnits="userSpaceOnUse">
<stop stop-color="#000066"/>
<stop offset="1" stop-color="#00CCFF"/>
</linearGradient>
</defs>
</svg>
