<svg width="104" height="76" viewBox="0 0 104 76" fill="none" xmlns="http://www.w3.org/2000/svg">
<path d="M92.5669 0.310061L96.9869 6.89182L89.0769 7.42885L92.5669 0.310061Z" fill="url(#paint0_linear)"/>
<path d="M3.33108 35.1394L10.9251 37.4171L5.15547 42.8548L3.33108 35.1394Z" fill="url(#paint1_linear)"/>
<path d="M93.6422 66.2726L101.473 65.0357L98.629 72.4362L93.6422 66.2726Z" fill="url(#paint2_linear)"/>
<path d="M70.5312 68.7812H39.5938C38.4997 68.7812 37.4505 68.3467 36.6769 67.5731C35.9033 66.7995 35.4688 65.7503 35.4688 64.6562V17.2188C35.4688 16.1247 35.9033 15.0755 36.6769 14.3019C37.4505 13.5283 38.4997 13.0938 39.5938 13.0938H68.4688C70.1098 13.0938 71.6836 13.7456 72.844 14.906C74.0044 16.0664 74.6562 17.6402 74.6562 19.2812V64.6562C74.6562 65.7503 74.2217 66.7995 73.4481 67.5731C72.6745 68.3467 71.6253 68.7812 70.5312 68.7812Z" fill="url(#paint3_linear)"/>
<path d="M66.4062 72.9062H35.4688C34.3747 72.9062 33.3255 72.4717 32.5519 71.6981C31.7783 70.9245 31.3438 69.8753 31.3438 68.7812V21.3438C31.3438 20.2497 31.7783 19.2005 32.5519 18.4269C33.3255 17.6533 34.3747 17.2188 35.4688 17.2188H59.1875L70.5312 27.5312V68.7812C70.5312 69.8753 70.0967 70.9245 69.3231 71.6981C68.5495 72.4717 67.5003 72.9062 66.4062 72.9062Z" fill="url(#paint4_linear)"/>
<path d="M39.5938 37.8438H53V39.9062H39.5938V37.8438Z" fill="white"/>
<path d="M35.4688 37.8438H37.5312V39.9062H35.4688V37.8438Z" fill="white"/>
<path d="M55.0625 37.8438H60.2188V39.9062H55.0625V37.8438Z" fill="white"/>
<path d="M62.2812 37.8438H67.4375V39.9062H62.2812V37.8438Z" fill="white"/>
<path d="M39.5938 41.9688H53V44.0312H39.5938V41.9688Z" fill="white"/>
<path d="M35.4688 41.9688H37.5312V44.0312H35.4688V41.9688Z" fill="white"/>
<path d="M55.0625 41.9688H60.2188V44.0312H55.0625V41.9688Z" fill="white"/>
<path d="M62.2812 41.9688H67.4375V44.0312H62.2812V41.9688Z" fill="white"/>
<path d="M39.5938 46.0938H53V48.1562H39.5938V46.0938Z" fill="white"/>
<path d="M35.4688 46.0938H37.5312V48.1562H35.4688V46.0938Z" fill="white"/>
<path d="M55.0625 46.0938H60.2188V48.1562H55.0625V46.0938Z" fill="white"/>
<path d="M62.2812 46.0938H67.4375V48.1562H62.2812V46.0938Z" fill="white"/>
<path d="M39.5938 50.2188H53V52.2812H39.5938V50.2188Z" fill="white"/>
<path d="M35.4688 50.2188H37.5312V52.2812H35.4688V50.2188Z" fill="white"/>
<path d="M55.0625 50.2188H60.2188V52.2812H55.0625V50.2188Z" fill="white"/>
<path d="M62.2812 50.2188H67.4375V52.2812H62.2812V50.2188Z" fill="white"/>
<path d="M39.5938 54.3438H53V56.4062H39.5938V54.3438Z" fill="white"/>
<path d="M35.4688 54.3438H37.5312V56.4062H35.4688V54.3438Z" fill="white"/>
<path d="M55.0625 54.3438H60.2188V56.4062H55.0625V54.3438Z" fill="white"/>
<path d="M62.2812 54.3438H67.4375V56.4062H62.2812V54.3438Z" fill="white"/>
<path d="M39.5938 58.4688H53V60.5312H39.5938V58.4688Z" fill="white"/>
<path d="M35.4688 58.4688H37.5312V60.5312H35.4688V58.4688Z" fill="white"/>
<path d="M55.0625 58.4688H60.2188V60.5312H55.0625V58.4688Z" fill="white"/>
<path d="M62.2812 58.4688H67.4375V60.5312H62.2812V58.4688Z" fill="white"/>
<path d="M39.5938 62.5938H53V64.6562H39.5938V62.5938Z" fill="white"/>
<path d="M35.4688 62.5938H37.5312V64.6562H35.4688V62.5938Z" fill="white"/>
<path d="M55.0625 62.5938H60.2188V64.6562H55.0625V62.5938Z" fill="white"/>
<path d="M62.2812 62.5938H67.4375V64.6562H62.2812V62.5938Z" fill="white"/>
<path d="M35.4688 33.7188H67.4375V35.7812H35.4688V33.7188Z" fill="white"/>
<path d="M35.4688 66.7188H67.4375V68.7812H35.4688V66.7188Z" fill="white"/>
<path d="M47.8438 29.5938H57.125V31.6562H47.8438V29.5938Z" fill="white"/>
<path d="M47.8438 25.4688H57.125V27.5312H47.8438V25.4688Z" fill="white"/>
<path d="M45.2112 23.5151L41.0862 21.4526C40.943 21.381 40.7851 21.3438 40.625 21.3438C40.4649 21.3438 40.307 21.381 40.1638 21.4526L36.0388 23.5151C35.8675 23.6008 35.7234 23.7324 35.6228 23.8953C35.5221 24.0582 35.4688 24.246 35.4688 24.4375V30.625C35.4688 30.8985 35.5774 31.1608 35.7708 31.3542C35.9642 31.5476 36.2265 31.6562 36.5 31.6562H44.75C45.0235 31.6562 45.2858 31.5476 45.4792 31.3542C45.6726 31.1608 45.7812 30.8985 45.7812 30.625V24.4375C45.7812 24.246 45.7279 24.0582 45.6272 23.8953C45.5266 23.7324 45.3825 23.6008 45.2112 23.5151ZM37.5312 25.0748L40.625 23.5279L43.7188 25.0748V25.4687H37.5312V25.0748ZM37.5312 29.5937V27.5312H39.5938V29.5937H37.5312ZM41.6562 29.5937V27.5312H43.7188V29.5937H41.6562Z" fill="white"/>
<path d="M59.1875 17.2188V23.4062C59.1875 24.5003 59.6221 25.5495 60.3957 26.3231C61.1693 27.0967 62.2185 27.5312 63.3125 27.5312H70.5312L59.1875 17.2188Z" fill="#E3E9EF"/>
<path d="M56.0938 34.75V30.625L47.8438 39.9062L56.0938 49.1875V45.0625H68.3955C70.7074 45.0625 72.9966 45.5179 75.1325 46.4026C77.2683 47.2873 79.209 48.584 80.8438 50.2188C80.8438 46.1162 79.214 42.1816 76.3131 39.2807C73.4121 36.3797 69.4776 34.75 65.375 34.75H56.0938Z" fill="url(#paint5_linear)"/>
<path d="M49.9062 63.625V67.75L58.1562 58.4688L49.9062 49.1875V53.3125H37.6045C35.2926 53.3125 33.0034 52.8571 30.8675 51.9724C28.7317 51.0877 26.791 49.791 25.1562 48.1562C25.1562 52.2588 26.786 56.1934 29.6869 59.0943C32.5879 61.9953 36.5224 63.625 40.625 63.625H49.9062Z" fill="url(#paint6_linear)"/>
<defs>
<linearGradient id="paint0_linear" x1="92.8354" y1="3.8895" x2="93.2052" y2="9.44255" gradientUnits="userSpaceOnUse">
<stop stop-color="#A4ABB8"/>
<stop offset="1" stop-color="#A2A9B7" stop-opacity="0"/>
</linearGradient>
<linearGradient id="paint1_linear" x1="5.81147" y1="37.734" x2="9.62333" y2="41.789" gradientUnits="userSpaceOnUse">
<stop stop-color="#A4ABB8"/>
<stop offset="1" stop-color="#A2A9B7" stop-opacity="0"/>
</linearGradient>
<linearGradient id="paint2_linear" x1="97.0018" y1="67.5366" x2="102.194" y2="69.54" gradientUnits="userSpaceOnUse">
<stop stop-color="#A4ABB8"/>
<stop offset="1" stop-color="#A2A9B7" stop-opacity="0"/>
</linearGradient>
<linearGradient id="paint3_linear" x1="55.1716" y1="34.9278" x2="55.1095" y2="68.7813" gradientUnits="userSpaceOnUse">
<stop stop-color="#A4ABB8"/>
<stop offset="1" stop-color="#A2A9B7" stop-opacity="0"/>
</linearGradient>
<linearGradient id="paint4_linear" x1="56.6503" y1="19.75" x2="48.9146" y2="120.013" gradientUnits="userSpaceOnUse">
<stop stop-color="#F6F7F7"/>
<stop offset="0.0001" stop-color="#F6F6F7"/>
<stop offset="1" stop-color="#B8C0CD"/>
</linearGradient>
<linearGradient id="paint5_linear" x1="64.3438" y1="30.625" x2="64.3438" y2="50.2188" gradientUnits="userSpaceOnUse">
<stop stop-color="#CAD2DF"/>
<stop offset="1" stop-color="#959EAD"/>
</linearGradient>
<linearGradient id="paint6_linear" x1="41.6562" y1="48.1562" x2="41.6562" y2="67.75" gradientUnits="userSpaceOnUse">
<stop stop-color="#CAD2DF"/>
<stop offset="1" stop-color="#959EAD"/>
</linearGradient>
</defs>
</svg>
