<svg width="91" height="91" viewBox="0 0 91 91" fill="none" xmlns="http://www.w3.org/2000/svg">
<g clip-path="url(#clip0)">
<path d="M64.1622 25.2224L62.6025 25.7486C59.5554 26.7765 57.4167 29.5248 57.169 32.731L56.8089 37.3889C56.7934 37.589 56.7927 37.79 56.8082 37.9901C56.8655 38.7368 56.7083 39.4726 56.3721 40.1199C56.3721 40.1199 53.8961 36.3418 53.3739 35.8041L52.283 34.6804C51.1695 33.5336 50.321 32.1583 49.7917 30.6499C48.1117 25.8629 44.3249 17.4842 42.5263 15.0047C40.7905 12.6116 36.5854 14.6525 37.2578 17.5616C37.7369 19.634 42.2763 28.7958 44.5314 33.9557C44.6434 34.2118 44.2781 34.3992 44.1355 34.1587C40.8495 28.6164 34.67 19.1613 33.0286 17.2815C30.6746 14.5854 26.7587 17.1379 28.1224 20.4794C29.0563 22.7674 34.7106 32.3677 37.8949 37.9146C38.0341 38.1572 37.6911 38.3834 37.5234 38.1595C34.1239 33.6214 27.8382 25.4112 26.1804 24.0587C23.8897 22.19 20.3474 25.2397 21.7425 27.8796C22.7552 29.796 29.5599 38.7642 32.9614 43.1189C33.1279 43.332 32.8427 43.6018 32.639 43.4239C29.1348 40.3608 22.5116 33.6856 21.0204 32.887C18.4143 31.4915 15.5214 35.163 17.3961 37.4869C18.9006 39.352 25.1731 45.0982 28.9121 48.3827L30.3452 52.5605C32.3029 58.2673 34.6862 61.332 39.2746 65.3814C41.1701 67.0543 42.6238 69.2033 43.1607 71.6739L45.2214 75.0309L66.9864 61.6702L64.9255 58.313C64.915 58.3044 64.9045 58.2958 64.8941 58.2872C63.217 56.9082 62.7041 54.5572 63.6088 52.5834L64.3784 51.3725C65.9432 48.9107 66.5228 45.9494 66.0018 43.0792L65.4892 40.2557C64.7921 36.4146 64.9481 32.467 65.9466 28.6929L66.3286 27.2485C66.6717 25.9514 65.4338 24.7934 64.1622 25.2224Z" fill="url(#paint0_linear)"/>
<path d="M66.3294 27.2485L65.9469 28.6927C65.1511 31.7032 64.8898 34.8236 65.1716 37.9122C65.2427 38.6966 65.3486 39.4786 65.4895 40.2564L66.0029 43.0795C66.5232 45.9493 65.9439 48.9109 64.379 51.3726L63.6096 52.5831C62.704 54.5572 63.2173 56.9077 64.8949 58.2868C64.9045 58.2953 64.9159 58.3044 64.9255 58.313L66.9863 61.67L56.4688 68.1262C54.2027 66.8444 52.2125 64.996 50.735 62.6341C45.9989 55.0678 48.2937 45.094 55.8607 40.3589C56.0191 40.2602 56.1788 40.1637 56.3388 40.0699C56.3606 40.1029 56.3726 40.1202 56.3726 40.1202C56.3892 40.0882 56.4059 40.0563 56.4201 40.0228C56.7237 39.3999 56.8636 38.6992 56.8084 37.9905C56.7936 37.7893 56.794 37.5889 56.8086 37.3884L57.1691 32.7309C57.4168 29.5247 59.5554 26.7761 62.6023 25.7482L64.1632 25.2222C65.4342 24.7931 66.673 25.9512 66.3294 27.2485Z" fill="url(#paint1_linear)"/>
<path d="M71.8969 63.8865L68.8713 58.9578C67.8986 57.3731 65.8253 56.8771 64.2407 57.8498L43.2355 70.7441C41.6509 71.7168 41.1548 73.7901 42.1276 75.3747L45.1531 80.3035C46.1259 81.8881 48.1991 82.3842 49.7837 81.4114L70.7891 68.5171C72.3736 67.5444 72.8696 65.4711 71.8969 63.8865Z" fill="url(#paint2_linear)"/>
<path d="M56.3717 40.1196C56.3717 40.1196 53.8957 36.3415 53.3735 35.8038L52.2826 34.6801C51.6148 33.9923 51.0432 33.2218 50.5776 32.3903C48.7055 32.6237 46.6489 33.1943 44.5475 34.0925C44.5177 34.235 44.3401 34.317 44.2127 34.2384C43.0462 34.7551 41.8683 35.3718 40.7028 36.0873C39.7154 36.6934 38.7876 37.3398 37.9255 38.0134C37.9374 38.166 37.7774 38.2844 37.637 38.2419C35.7054 39.7918 34.1238 41.4775 32.9821 43.1517C33.0737 43.3153 32.926 43.4959 32.7642 43.4801C30.8988 46.358 30.3518 49.1727 31.5794 51.1726C33.9149 54.9773 41.7863 54.3918 49.1605 49.8651C51.9617 48.1455 54.2881 46.1046 55.9683 44.026C56.8629 42.9196 57.0158 41.3881 56.3717 40.1196Z" fill="url(#paint3_linear)"/>
<path d="M37.8386 38.2007C37.8197 38.2169 37.797 38.2293 37.7744 38.2371C37.7981 38.2287 37.819 38.2158 37.8386 38.2007Z" fill="url(#paint4_linear)"/>
<path d="M37.8624 38.1784C37.8769 38.165 37.8894 38.1482 37.899 38.1317C37.889 38.15 37.8776 38.1661 37.8624 38.1784Z" fill="url(#paint5_linear)"/>
<path d="M37.523 38.1589C37.5558 38.2025 37.5954 38.2299 37.6377 38.2419C35.7058 39.7923 34.1237 41.4771 32.9827 43.1509C32.976 43.1398 32.9692 43.1288 32.9613 43.1185C29.7567 39.0162 23.5323 30.8182 21.9752 28.2816C21.879 28.125 21.8011 27.9906 21.742 27.8796C20.9448 26.3706 21.7614 24.7274 23.0341 23.9461C23.9881 23.3605 25.1992 23.2579 26.181 24.0583C27.8389 25.411 34.1236 33.6205 37.523 38.1589Z" fill="url(#paint6_linear)"/>
<path d="M44.1353 34.159C44.157 34.1943 44.1832 34.2222 44.212 34.2395C43.0451 34.7554 41.8684 35.3714 40.7026 36.087C39.7155 36.693 38.7872 37.3403 37.9251 38.0137C37.9235 37.9814 37.9136 37.9479 37.8944 37.9142C36.3015 35.1413 34.0923 31.3543 32.1637 27.9751C30.2362 24.5952 28.5894 21.6231 28.1215 20.4799C27.4257 18.7751 28.1044 17.2758 29.2481 16.5737C30.3465 15.8994 31.8751 15.9603 33.0277 17.2814C34.6695 19.1618 40.8482 28.6163 44.1353 34.159Z" fill="url(#paint7_linear)"/>
<path d="M49.7909 30.6495C50.0105 31.277 50.2868 31.8803 50.6126 32.4532C50.6015 32.4327 50.5887 32.4117 50.5776 32.3912C48.7051 32.6234 46.649 33.1947 44.5475 34.0929C44.5573 34.052 44.5526 34.0048 44.5315 33.9555C43.4034 31.3756 41.7054 27.7957 40.2286 24.6008C38.7517 21.4059 37.4975 18.5983 37.2572 17.5613C36.9513 16.2367 37.6568 15.0929 38.6803 14.4647C39.9034 13.7138 41.5813 13.7013 42.5255 15.0045C44.3241 17.4842 48.1115 25.8631 49.7909 30.6495Z" fill="url(#paint8_linear)"/>
<path d="M41.6641 45.8174C37.1307 48.6003 33.8207 52.4865 32.0386 56.6322C33.7333 59.9715 35.9114 62.4122 39.2752 65.3809C41.1707 67.0539 42.6245 69.2029 43.1613 71.6734L45.222 75.0304L66.987 61.6698L64.9263 58.3128C64.9157 58.3042 64.9053 58.2956 64.8948 58.287C63.2177 56.908 62.7049 54.557 63.6096 52.5832L64.3792 51.3723C65.327 49.8809 65.9107 48.206 66.11 46.4794C60.5125 40.9831 50.3065 40.5121 41.6641 45.8174Z" fill="url(#paint9_linear)"/>
<path d="M71.391 48.1917C71.2032 49.5491 70.5998 50.7464 69.727 51.6735C69.1081 52.331 68.0472 52.2761 67.5023 51.5564L67.4253 51.4548C66.9918 50.8821 67.0546 50.0919 67.5403 49.5628C67.9807 49.0831 68.2847 48.4691 68.3808 47.7752C68.4767 47.0813 68.3508 46.4079 68.0572 45.8267C67.7334 45.1856 67.8874 44.4081 68.4602 43.9746L68.5618 43.8977C69.2817 43.3528 70.3176 43.588 70.7347 44.3887C71.323 45.518 71.5787 46.8343 71.391 48.1917Z" fill="url(#paint10_linear)"/>
<path d="M12.51 36.1086C12.4389 34.7402 12.8064 33.4506 13.4891 32.3758C13.9732 31.6137 15.0255 31.468 15.6962 32.0724L15.7907 32.1577C16.3242 32.6387 16.4113 33.4265 16.0337 34.0376C15.6915 34.5916 15.5084 35.2517 15.5447 35.9513C15.581 36.6509 15.8314 37.2885 16.2292 37.8042C16.6679 38.3729 16.6629 39.1655 16.182 39.6991L16.0967 39.7937C15.4922 40.4643 14.4304 40.4281 13.8701 39.7202C13.0798 38.7217 12.5809 37.4771 12.51 36.1086Z" fill="url(#paint11_linear)"/>
<path d="M7.80296 35.9321C7.7319 34.5636 8.09935 33.2741 8.78208 32.1993C9.26618 31.4371 10.3185 31.2914 10.9891 31.8959L11.0837 31.9812C11.6172 32.4621 11.7043 33.2499 11.3267 33.861C10.9844 34.4151 10.8014 35.0751 10.8377 35.7747C10.874 36.4743 11.1243 37.112 11.5221 37.6276C11.9608 38.1964 11.9558 38.9889 11.4749 39.5225L11.3896 39.6171C10.7851 40.2878 9.72335 40.2515 9.16305 39.5436C8.37278 38.5452 7.87401 37.3005 7.80296 35.9321Z" fill="url(#paint12_linear)"/>
<path d="M76.2806 49.3611C76.0928 50.7185 75.4894 51.9159 74.6166 52.843C73.9978 53.5005 72.9369 53.4456 72.3919 52.7259L72.315 52.6243C71.8814 52.0516 71.9442 51.2614 72.43 50.7323C72.8703 50.2526 73.1743 49.6386 73.2705 48.9447C73.3666 48.2509 73.2404 47.5774 72.9469 46.9962C72.623 46.3551 72.7771 45.5775 73.3498 45.1441L73.4514 45.0672C74.1714 44.5223 75.2073 44.7575 75.6244 45.5582C76.2127 46.6875 76.4684 48.0037 76.2806 49.3611Z" fill="url(#paint13_linear)"/>
</g>
<defs>
<linearGradient id="paint0_linear" x1="28.1276" y1="33.8031" x2="70.3064" y2="59.1706" gradientUnits="userSpaceOnUse">
<stop stop-color="#FCCECE"/>
<stop offset="1" stop-color="#FBA5C2"/>
</linearGradient>
<linearGradient id="paint1_linear" x1="58.8515" y1="47.5009" x2="30.9179" y2="66.0986" gradientUnits="userSpaceOnUse">
<stop stop-color="#FCCECE" stop-opacity="0"/>
<stop offset="1" stop-color="#BB4966"/>
</linearGradient>
<linearGradient id="paint2_linear" x1="29.0515" y1="97.5811" x2="22.6165" y2="52.8816" gradientUnits="userSpaceOnUse">
<stop stop-color="#000066"/>
<stop offset="1" stop-color="#00CCFF"/>
</linearGradient>
<linearGradient id="paint3_linear" x1="41.6395" y1="42.474" x2="31.3311" y2="30.5188" gradientUnits="userSpaceOnUse">
<stop stop-color="#FCCECE" stop-opacity="0"/>
<stop offset="1" stop-color="#BB4966"/>
</linearGradient>
<linearGradient id="paint4_linear" x1="37.8038" y1="38.2157" x2="37.798" y2="38.209" gradientUnits="userSpaceOnUse">
<stop stop-color="#FBA5C2" stop-opacity="0"/>
<stop offset="1" stop-color="#A34A9E"/>
</linearGradient>
<linearGradient id="paint5_linear" x1="37.8786" y1="38.1525" x2="37.8738" y2="38.1471" gradientUnits="userSpaceOnUse">
<stop stop-color="#FBA5C2" stop-opacity="0"/>
<stop offset="1" stop-color="#A34A9E"/>
</linearGradient>
<linearGradient id="paint6_linear" x1="30.202" y1="32.1105" x2="37.5663" y2="27.2862" gradientUnits="userSpaceOnUse">
<stop stop-color="#FCCECE" stop-opacity="0"/>
<stop offset="1" stop-color="#BB4966"/>
</linearGradient>
<linearGradient id="paint7_linear" x1="34.4814" y1="26.907" x2="47.3455" y2="21.6422" gradientUnits="userSpaceOnUse">
<stop stop-color="#FCCECE" stop-opacity="0"/>
<stop offset="1" stop-color="#BB4966"/>
</linearGradient>
<linearGradient id="paint8_linear" x1="43.9576" y1="23.6334" x2="52.2682" y2="21.6699" gradientUnits="userSpaceOnUse">
<stop stop-color="#FCCECE" stop-opacity="0"/>
<stop offset="1" stop-color="#BB4966"/>
</linearGradient>
<linearGradient id="paint9_linear" x1="49.3378" y1="52.3468" x2="41.1111" y2="27.6606" gradientUnits="userSpaceOnUse">
<stop stop-color="#FCCECE" stop-opacity="0"/>
<stop offset="1" stop-color="#BB4966"/>
</linearGradient>
<linearGradient id="paint10_linear" x1="69.7759" y1="44.1453" x2="65.8709" y2="60.2346" gradientUnits="userSpaceOnUse">
<stop stop-color="#FF0066"/>
<stop offset="1" stop-color="#280000"/>
</linearGradient>
<linearGradient id="paint11_linear" x1="15.1975" y1="32.2358" x2="9.82507" y2="47.1962" gradientUnits="userSpaceOnUse">
<stop stop-color="#FF0066"/>
<stop offset="1" stop-color="#280000"/>
</linearGradient>
<linearGradient id="paint12_linear" x1="10.4904" y1="32.0592" x2="5.11802" y2="47.0197" gradientUnits="userSpaceOnUse">
<stop stop-color="#FF0066"/>
<stop offset="1" stop-color="#280000"/>
</linearGradient>
<linearGradient id="paint13_linear" x1="74.6655" y1="45.3148" x2="70.7606" y2="61.4041" gradientUnits="userSpaceOnUse">
<stop stop-color="#FF0066"/>
<stop offset="1" stop-color="#280000"/>
</linearGradient>
<clipPath id="clip0">
<rect width="66" height="66" fill="white" transform="translate(0 34.5282) rotate(-31.5441)"/>
</clipPath>
</defs>
</svg>
