<svg width="21" height="22" viewBox="0 0 21 22" fill="none" xmlns="http://www.w3.org/2000/svg">
<path fill-rule="evenodd" clip-rule="evenodd" d="M16.625 3.125H4.375C3.4125 3.125 2.625 3.9125 2.625 4.875V17.125C2.625 18.0875 3.40375 18.875 4.375 18.875H16.625C17.5875 18.875 18.375 18.0875 18.375 17.125V4.875C18.375 3.9125 17.5875 3.125 16.625 3.125ZM16.625 17.125H4.375V14.5H7.49C8.09375 15.5413 9.21375 16.25 10.5087 16.25C11.8038 16.25 12.915 15.5413 13.5275 14.5H16.625V17.125ZM12.2587 12.75H16.625V4.875H4.375V12.75H8.75875C8.75875 13.7125 9.54625 14.5 10.5087 14.5C11.4713 14.5 12.2587 13.7125 12.2587 12.75Z" fill="#005DAB"/>
</svg>
