<svg width="22" height="22" viewBox="0 0 22 22" fill="none" xmlns="http://www.w3.org/2000/svg">
<path fill-rule="evenodd" clip-rule="evenodd" d="M18.0875 3.125H3.9125C3.475 3.125 3.125 3.475 3.125 3.9125V18.0875C3.125 18.4375 3.475 18.875 3.9125 18.875H18.0875C18.4375 18.875 18.875 18.4375 18.875 18.0875V3.9125C18.875 3.475 18.4375 3.125 18.0875 3.125ZM8.375 6.625H6.625V8.375H8.375V6.625ZM15.375 6.625H10.125V8.375H15.375V6.625ZM15.375 10.125H10.125V11.875H15.375V10.125ZM10.125 13.625H15.375V15.375H10.125V13.625ZM6.625 10.125H8.375V11.875H6.625V10.125ZM8.375 13.625H6.625V15.375H8.375V13.625ZM4.875 17.125H17.125V4.875H4.875V17.125Z" fill="#005DAB"/>
</svg>
