<svg width="22" height="22" viewBox="0 0 22 22" fill="none" xmlns="http://www.w3.org/2000/svg">
<path fill-rule="evenodd" clip-rule="evenodd" d="M15.375 6.1875H18C18.9713 6.1875 19.75 6.96625 19.75 7.9375V17.5625C19.75 18.5337 18.9713 19.3125 18 19.3125H4C3.02875 19.3125 2.25 18.5337 2.25 17.5625V7.9375C2.25 6.96625 3.02875 6.1875 4 6.1875H6.625V4.4375C6.625 3.46625 7.40375 2.6875 8.375 2.6875H13.625C14.5962 2.6875 15.375 3.46625 15.375 4.4375V6.1875ZM13.625 4.4375H8.375V6.1875H13.625V4.4375ZM18 17.5625H4V15.8125H18V17.5625ZM4 13.1875H18V7.9375H15.375V9.6875H13.625V7.9375H8.375V9.6875H6.625V7.9375H4V13.1875Z" fill="#005DAB"/>
</svg>
