<svg width="142" height="189" viewBox="0 0 142 189" fill="none" xmlns="http://www.w3.org/2000/svg">
<path d="M136.452 60.2393L71.753 124.938H74.3661C95.5339 124.938 111.281 120.111 121.608 110.457C131.935 100.803 137.078 87.3899 137.078 70.2182C137.078 66.7261 136.869 63.4 136.452 60.2393ZM41.5903 155.101L8.68506 188.006H41.5903V155.101Z" fill="url(#paint0_linear)"/>
<path d="M103.967 8.6546L76.284 36.5193H106.061V68.884H83.5471V107.324H83.5473L141.614 49.076C140.042 37.1607 135.51 27.6082 128.036 20.4785C121.976 14.6719 113.949 10.7341 103.967 8.6546ZM43.9194 68.884L0 112.622V176.843H13.8469L57.4357 133.436V107.324H57.4364V68.884H43.9194Z" fill="url(#paint1_linear)"/>
<path d="M6.21777 99.8599L37.6503 68.4274H33.0172V36.0627H70.0149L104.331 1.7471C98.7366 0.581737 92.5284 0 85.7078 0H6.21777V99.8599Z" fill="url(#paint2_linear)"/>
<path fill-rule="evenodd" clip-rule="evenodd" d="M39.4317 36.0631H70.0143L104.33 1.7468C98.7357 0.581438 92.5283 0.000228882 85.7073 0.000228882H30.0493C30.9701 12.8237 34.2412 24.9895 39.4317 36.0631ZM136.451 60.2393L105.446 91.2438C113.556 93.3608 122.058 94.4899 130.822 94.4899C131.447 94.4899 132.068 94.4778 132.69 94.4659C135.617 87.4504 137.078 79.3681 137.078 70.2181C137.078 66.726 136.868 63.4 136.451 60.2393ZM103.966 8.65441L76.2833 36.5198H106.06V68.8836H83.5464V82.6519C89.0445 85.5951 94.8409 88.0452 100.882 89.9358L141.613 49.0762C140.041 37.1607 135.51 27.6087 128.036 20.4781C121.976 14.6717 113.949 10.7341 103.966 8.65441Z" fill="url(#paint3_linear)" fill-opacity="0.4"/>
<defs>
<linearGradient id="paint0_linear" x1="-27.8282" y1="233.373" x2="219.905" y2="-18.531" gradientUnits="userSpaceOnUse">
<stop stop-color="#FF6600"/>
<stop offset="1" stop-color="#FFFF00"/>
</linearGradient>
<linearGradient id="paint1_linear" x1="141.707" y1="8.78616" x2="-100.188" y2="218.15" gradientUnits="userSpaceOnUse">
<stop stop-color="#FF0066"/>
<stop offset="1" stop-color="#280000"/>
</linearGradient>
<linearGradient id="paint2_linear" x1="-64.9462" y1="123.269" x2="114.389" y2="-40.8439" gradientUnits="userSpaceOnUse">
<stop stop-color="#000066"/>
<stop offset="1" stop-color="#00CCFF"/>
</linearGradient>
<linearGradient id="paint3_linear" x1="68.7206" y1="72.5962" x2="157.137" y2="-16.2374" gradientUnits="userSpaceOnUse">
<stop stop-color="white"/>
<stop offset="1" stop-color="white" stop-opacity="0"/>
</linearGradient>
</defs>
</svg>
