<svg width="21" height="22" viewBox="0 0 21 22" fill="none" xmlns="http://www.w3.org/2000/svg">
<path fill-rule="evenodd" clip-rule="evenodd" d="M7.875 11C9.56375 11 10.9375 9.62625 10.9375 7.9375C10.9375 6.24875 9.56375 4.875 7.875 4.875C6.18625 4.875 4.8125 6.24875 4.8125 7.9375C4.8125 9.62625 6.18625 11 7.875 11ZM1.75 15.5938C1.75 13.555 5.8275 12.5312 7.875 12.5312C9.9225 12.5312 14 13.555 14 15.5938V17.125H1.75V15.5938ZM7.875 14.2812C6.30875 14.2812 4.5325 14.8675 3.7975 15.375H11.9525C11.2175 14.8675 9.44125 14.2812 7.875 14.2812ZM9.1875 7.9375C9.1875 7.21125 8.60125 6.625 7.875 6.625C7.14875 6.625 6.5625 7.21125 6.5625 7.9375C6.5625 8.66375 7.14875 9.25 7.875 9.25C8.60125 9.25 9.1875 8.66375 9.1875 7.9375ZM14.035 12.5838C15.05 13.3188 15.75 14.2988 15.75 15.5938V17.125H19.25V15.5938C19.25 13.8263 16.1875 12.82 14.035 12.5838ZM16.1875 7.9375C16.1875 9.62625 14.8138 11 13.125 11C12.6525 11 12.215 10.8863 11.8125 10.6937C12.3638 9.915 12.6875 8.96125 12.6875 7.9375C12.6875 6.91375 12.3638 5.96 11.8125 5.18125C12.215 4.98875 12.6525 4.875 13.125 4.875C14.8138 4.875 16.1875 6.24875 16.1875 7.9375Z" fill="#626172"/>
</svg>
