<svg width="22" height="22" viewBox="0 0 22 22" fill="none" xmlns="http://www.w3.org/2000/svg">
<path fill-rule="evenodd" clip-rule="evenodd" d="M1.375 11C2.88875 7.15875 6.625 4.4375 11 4.4375C15.375 4.4375 19.1112 7.15875 20.625 11C19.1112 14.8412 15.375 17.5625 11 17.5625C6.625 17.5625 2.88875 14.8412 1.375 11ZM18.7175 11C17.2737 8.05125 14.3162 6.1875 11 6.1875C7.68375 6.1875 4.72625 8.05125 3.2825 11C4.72625 13.9487 7.68375 15.8125 11 15.8125C14.3162 15.8125 17.2737 13.9487 18.7175 11ZM11 8.8125C12.2075 8.8125 13.1875 9.7925 13.1875 11C13.1875 12.2075 12.2075 13.1875 11 13.1875C9.7925 13.1875 8.8125 12.2075 8.8125 11C8.8125 9.7925 9.7925 8.8125 11 8.8125ZM7.0625 11C7.0625 8.83 8.83 7.0625 11 7.0625C13.17 7.0625 14.9375 8.83 14.9375 11C14.9375 13.17 13.17 14.9375 11 14.9375C8.83 14.9375 7.0625 13.17 7.0625 11Z" fill="#626172"/>
</svg>
